<svg width="32" height="32" viewBox="0 0 24 24" fill="none" xmlns="http://www.w3.org/2000/svg"><path opacity="0.1" fill-rule="evenodd" clip-rule="evenodd" d="M0 12C0 5.37258 5.37258 0 12 0C18.6274 0 24 5.37258 24 12C24 18.6274 18.6274 24 12 24C5.37258 24 0 18.6274 0 12Z" fill="#B3B3B3"></path><path d="M12.9315 17.998V12.534H14.7749L15.0489 10.3947H12.9315V9.03199C12.9315 8.41466 13.1035 7.99199 13.9895 7.99199H15.1122V6.08466C14.5659 6.02612 14.0169 5.99785 13.4675 5.99999C11.8382 5.99999 10.7195 6.99466 10.7195 8.82066V10.3907H8.88818V12.53H10.7235V17.998H12.9315Z" fill="#B3B3B3"></path></svg>