<svg width="89" height="80" viewBox="0 0 89 88" fill="none" xmlns="http://www.w3.org/2000/svg">
    <rect x="0.285645" width="89" height="88" rx="8" fill="white" fill-opacity="0.08"></rect>
    <g clip-path="url(#clip0_2416_103837)">
        <path d="M27.7891 7.20001V8.89197H29.481V7.20001H27.7891Z" fill="white"></path>
        <path d="M35.4028 7.20001V8.89197H37.0948V7.20001H35.4028Z" fill="white"></path>
        <path d="M37.9409 7.20001V8.89197H39.6329V7.20001H37.9409Z" fill="white"></path>
        <path d="M43.0166 7.20001V8.89197H44.7086V7.20001H43.0166Z" fill="white"></path>
        <path d="M45.5547 7.20001V8.89197H47.2466V7.20001H45.5547Z" fill="white"></path>
        <path d="M48.0928 7.20001V8.89197H49.7847V7.20001H48.0928Z" fill="white"></path>
        <path d="M27.7891 9.73792V11.4299H29.481V9.73792H27.7891Z" fill="white"></path>
        <path d="M30.3271 9.73792V11.4299H32.0191V9.73792H30.3271Z" fill="white"></path>
        <path d="M32.8647 9.73792V11.4299H34.5567V9.73792H32.8647Z" fill="white"></path>
        <path d="M37.9409 9.73792V11.4299H39.6329V9.73792H37.9409Z" fill="white"></path>
        <path d="M40.4785 9.73792V11.4299H42.1705V9.73792H40.4785Z" fill="white"></path>
        <path d="M43.0166 9.73792V11.4299H44.7086V9.73792H43.0166Z" fill="white"></path>
        <path d="M48.0928 9.73792V11.4299H49.7847V9.73792H48.0928Z" fill="white"></path>
        <path d="M53.1685 9.73792V11.4299H54.8604V9.73792H53.1685Z" fill="white"></path>
        <path d="M58.2441 9.73792V11.4299H59.9361V9.73792H58.2441Z" fill="white"></path>
        <path d="M27.7891 12.2759V13.9678H29.481V12.2759H27.7891Z" fill="white"></path>
        <path d="M30.3271 12.2759V13.9678H32.0191V12.2759H30.3271Z" fill="white"></path>
        <path d="M32.8647 12.2759V13.9678H34.5567V12.2759H32.8647Z" fill="white"></path>
        <path d="M35.4028 12.2759V13.9678H37.0948V12.2759H35.4028Z" fill="white"></path>
        <path d="M37.9409 12.2759V13.9678H39.6329V12.2759H37.9409Z" fill="white"></path>
        <path d="M40.4785 12.2759V13.9678H42.1705V12.2759H40.4785Z" fill="white"></path>
        <path d="M43.0166 12.2759V13.9678H44.7086V12.2759H43.0166Z" fill="white"></path>
        <path d="M45.5547 12.2759V13.9678H47.2466V12.2759H45.5547Z" fill="white"></path>
        <path d="M35.4028 14.8138V16.5057H37.0948V14.8138H35.4028Z" fill="white"></path>
        <path d="M40.4785 14.8138V16.5057H42.1705V14.8138H40.4785Z" fill="white"></path>
        <path d="M45.5547 14.8138V16.5057H47.2466V14.8138H45.5547Z" fill="white"></path>
        <path d="M50.6304 14.8138V16.5057H52.3223V14.8138H50.6304Z" fill="white"></path>
        <path d="M53.1685 14.8138V16.5057H54.8604V14.8138H53.1685Z" fill="white"></path>
        <path d="M58.2441 14.8138V16.5057H59.9361V14.8138H58.2441Z" fill="white"></path>
        <path d="M32.8647 17.3517V19.0437H34.5567V17.3517H32.8647Z" fill="white"></path>
        <path d="M35.4028 17.3517V19.0437H37.0948V17.3517H35.4028Z" fill="white"></path>
        <path d="M37.9409 17.3517V19.0437H39.6329V17.3517H37.9409Z" fill="white"></path>
        <path d="M40.4785 17.3517V19.0437H42.1705V17.3517H40.4785Z" fill="white"></path>
        <path d="M50.6304 17.3517V19.0437H52.3223V17.3517H50.6304Z" fill="white"></path>
        <path d="M53.1685 17.3517V19.0437H54.8604V17.3517H53.1685Z" fill="white"></path>
        <path d="M55.7065 17.3517V19.0437H57.3985V17.3517H55.7065Z" fill="white"></path>
        <path d="M27.7891 19.8896V21.5816H29.481V19.8896H27.7891Z" fill="white"></path>
        <path d="M35.4028 19.8896V21.5816H37.0948V19.8896H35.4028Z" fill="white"></path>
        <path d="M40.4785 19.8896V21.5816H42.1705V19.8896H40.4785Z" fill="white"></path>
        <path d="M43.0166 19.8896V21.5816H44.7086V19.8896H43.0166Z" fill="white"></path>
        <path d="M45.5547 19.8896V21.5816H47.2466V19.8896H45.5547Z" fill="white"></path>
        <path d="M48.0928 19.8896V21.5816H49.7847V19.8896H48.0928Z" fill="white"></path>
        <path d="M50.6304 19.8896V21.5816H52.3223V19.8896H50.6304Z" fill="white"></path>
        <path d="M27.7891 22.4276V24.1196H29.481V22.4276H27.7891Z" fill="white"></path>
        <path d="M32.8647 22.4276V24.1196H34.5567V22.4276H32.8647Z" fill="white"></path>
        <path d="M37.9409 22.4276V24.1196H39.6329V22.4276H37.9409Z" fill="white"></path>
        <path d="M43.0166 22.4276V24.1196H44.7086V22.4276H43.0166Z" fill="white"></path>
        <path d="M48.0928 22.4276V24.1196H49.7847V22.4276H48.0928Z" fill="white"></path>
        <path d="M53.1685 22.4276V24.1196H54.8604V22.4276H53.1685Z" fill="white"></path>
        <path d="M58.2441 22.4276V24.1196H59.9361V22.4276H58.2441Z" fill="white"></path>
        <path d="M27.7891 24.9655V26.6575H29.481V24.9655H27.7891Z" fill="white"></path>
        <path d="M30.3271 24.9655V26.6575H32.0191V24.9655H30.3271Z" fill="white"></path>
        <path d="M32.8647 24.9655V26.6575H34.5567V24.9655H32.8647Z" fill="white"></path>
        <path d="M35.4028 24.9655V26.6575H37.0948V24.9655H35.4028Z" fill="white"></path>
        <path d="M40.4785 24.9655V26.6575H42.1705V24.9655H40.4785Z" fill="white"></path>
        <path d="M48.0928 24.9655V26.6575H49.7847V24.9655H48.0928Z" fill="white"></path>
        <path d="M50.6304 24.9655V26.6575H52.3223V24.9655H50.6304Z" fill="white"></path>
        <path d="M53.1685 24.9655V26.6575H54.8604V24.9655H53.1685Z" fill="white"></path>
        <path d="M55.7065 24.9655V26.6575H57.3985V24.9655H55.7065Z" fill="white"></path>
        <path d="M12.5615 27.5034V29.1954H14.2535V27.5034H12.5615Z" fill="white"></path>
        <path d="M15.0996 27.5034V29.1954H16.7916V27.5034H15.0996Z" fill="white"></path>
        <path d="M17.6372 27.5034V29.1954H19.3292V27.5034H17.6372Z" fill="white"></path>
        <path d="M22.7134 27.5034V29.1954H24.4053V27.5034H22.7134Z" fill="white"></path>
        <path d="M27.7891 27.5034V29.1954H29.481V27.5034H27.7891Z" fill="white"></path>
        <path d="M30.3271 27.5034V29.1954H32.0191V27.5034H30.3271Z" fill="white"></path>
        <path d="M37.9409 27.5034V29.1954H39.6329V27.5034H37.9409Z" fill="white"></path>
        <path d="M43.0166 27.5034V29.1954H44.7086V27.5034H43.0166Z" fill="white"></path>
        <path d="M60.7822 27.5034V29.1954H62.4742V27.5034H60.7822Z" fill="white"></path>
        <path d="M63.3203 27.5034V29.1954H65.0123V27.5034H63.3203Z" fill="white"></path>
        <path d="M65.8579 27.5034V29.1954H67.5499V27.5034H65.8579Z" fill="white"></path>
        <path d="M73.4717 27.5034V29.1954H75.1636V27.5034H73.4717Z" fill="white"></path>
        <path d="M76.0098 27.5034V29.1954H77.7017V27.5034H76.0098Z" fill="white"></path>
        <path d="M78.5479 27.5034V29.1954H80.2398V27.5034H78.5479Z" fill="white"></path>
        <path d="M10.0234 30.0414V31.7333H11.7154V30.0414H10.0234Z" fill="white"></path>
        <path d="M12.5615 30.0414V31.7333H14.2535V30.0414H12.5615Z" fill="white"></path>
        <path d="M15.0996 30.0414V31.7333H16.7916V30.0414H15.0996Z" fill="white"></path>
        <path d="M20.1753 30.0414V31.7333H21.8672V30.0414H20.1753Z" fill="white"></path>
        <path d="M30.3271 30.0414V31.7333H32.0191V30.0414H30.3271Z" fill="white"></path>
        <path d="M40.4785 30.0414V31.7333H42.1705V30.0414H40.4785Z" fill="white"></path>
        <path d="M43.0166 30.0414V31.7333H44.7086V30.0414H43.0166Z" fill="white"></path>
        <path d="M50.6304 30.0414V31.7333H52.3223V30.0414H50.6304Z" fill="white"></path>
        <path d="M53.1685 30.0414V31.7333H54.8604V30.0414H53.1685Z" fill="white"></path>
        <path d="M58.2441 30.0414V31.7333H59.9361V30.0414H58.2441Z" fill="white"></path>
        <path d="M63.3203 30.0414V31.7333H65.0123V30.0414H63.3203Z" fill="white"></path>
        <path d="M68.396 30.0414V31.7333H70.0879V30.0414H68.396Z" fill="white"></path>
        <path d="M70.9341 30.0414V31.7333H72.626V30.0414H70.9341Z" fill="white"></path>
        <path d="M78.5479 30.0414V31.7333H80.2398V30.0414H78.5479Z" fill="white"></path>
        <path d="M7.48584 32.5793V34.2712H9.17779V32.5793H7.48584Z" fill="white"></path>
        <path d="M10.0234 32.5793V34.2712H11.7154V32.5793H10.0234Z" fill="white"></path>
        <path d="M12.5615 32.5793V34.2712H14.2535V32.5793H12.5615Z" fill="white"></path>
        <path d="M15.0996 32.5793V34.2712H16.7916V32.5793H15.0996Z" fill="white"></path>
        <path d="M17.6372 32.5793V34.2712H19.3292V32.5793H17.6372Z" fill="white"></path>
        <path d="M22.7134 32.5793V34.2712H24.4053V32.5793H22.7134Z" fill="white"></path>
        <path d="M27.7891 32.5793V34.2712H29.481V32.5793H27.7891Z" fill="white"></path>
        <path d="M32.8647 32.5793V34.2712H34.5567V32.5793H32.8647Z" fill="white"></path>
        <path d="M35.4028 32.5793V34.2712H37.0948V32.5793H35.4028Z" fill="white"></path>
        <path d="M43.0166 32.5793V34.2712H44.7086V32.5793H43.0166Z" fill="white"></path>
        <path d="M48.0928 32.5793V34.2712H49.7847V32.5793H48.0928Z" fill="white"></path>
        <path d="M55.7065 32.5793V34.2712H57.3985V32.5793H55.7065Z" fill="white"></path>
        <path d="M60.7822 32.5793V34.2712H62.4742V32.5793H60.7822Z" fill="white"></path>
        <path d="M63.3203 32.5793V34.2712H65.0123V32.5793H63.3203Z" fill="white"></path>
        <path d="M70.9341 32.5793V34.2712H72.626V32.5793H70.9341Z" fill="white"></path>
        <path d="M25.251 35.1172V36.8092H26.9429V35.1172H25.251Z" fill="white"></path>
        <path d="M30.3271 35.1172V36.8092H32.0191V35.1172H30.3271Z" fill="white"></path>
        <path d="M32.8647 35.1172V36.8092H34.5567V35.1172H32.8647Z" fill="white"></path>
        <path d="M35.4028 35.1172V36.8092H37.0948V35.1172H35.4028Z" fill="white"></path>
        <path d="M37.9409 35.1172V36.8092H39.6329V35.1172H37.9409Z" fill="white"></path>
        <path d="M40.4785 35.1172V36.8092H42.1705V35.1172H40.4785Z" fill="white"></path>
        <path d="M48.0928 35.1172V36.8092H49.7847V35.1172H48.0928Z" fill="white"></path>
        <path d="M50.6304 35.1172V36.8092H52.3223V35.1172H50.6304Z" fill="white"></path>
        <path d="M53.1685 35.1172V36.8092H54.8604V35.1172H53.1685Z" fill="white"></path>
        <path d="M55.7065 35.1172V36.8092H57.3985V35.1172H55.7065Z" fill="white"></path>
        <path d="M58.2441 35.1172V36.8092H59.9361V35.1172H58.2441Z" fill="white"></path>
        <path d="M60.7822 35.1172V36.8092H62.4742V35.1172H60.7822Z" fill="white"></path>
        <path d="M63.3203 35.1172V36.8092H65.0123V35.1172H63.3203Z" fill="white"></path>
        <path d="M65.8579 35.1172V36.8092H67.5499V35.1172H65.8579Z" fill="white"></path>
        <path d="M68.396 35.1172V36.8092H70.0879V35.1172H68.396Z" fill="white"></path>
        <path d="M76.0098 35.1172V36.8092H77.7017V35.1172H76.0098Z" fill="white"></path>
        <path d="M7.48584 37.6552V39.3471H9.17779V37.6552H7.48584Z" fill="white"></path>
        <path d="M10.0234 37.6552V39.3471H11.7154V37.6552H10.0234Z" fill="white"></path>
        <path d="M15.0996 37.6552V39.3471H16.7916V37.6552H15.0996Z" fill="white"></path>
        <path d="M22.7134 37.6552V39.3471H24.4053V37.6552H22.7134Z" fill="white"></path>
        <path d="M25.251 37.6552V39.3471H26.9429V37.6552H25.251Z" fill="white"></path>
        <path d="M32.8647 37.6552V39.3471H34.5567V37.6552H32.8647Z" fill="white"></path>
        <path d="M43.0166 37.6552V39.3471H44.7086V37.6552H43.0166Z" fill="white"></path>
        <path d="M45.5547 37.6552V39.3471H47.2466V37.6552H45.5547Z" fill="white"></path>
        <path d="M50.6304 37.6552V39.3471H52.3223V37.6552H50.6304Z" fill="white"></path>
        <path d="M53.1685 37.6552V39.3471H54.8604V37.6552H53.1685Z" fill="white"></path>
        <path d="M55.7065 37.6552V39.3471H57.3985V37.6552H55.7065Z" fill="white"></path>
        <path d="M58.2441 37.6552V39.3471H59.9361V37.6552H58.2441Z" fill="white"></path>
        <path d="M60.7822 37.6552V39.3471H62.4742V37.6552H60.7822Z" fill="white"></path>
        <path d="M65.8579 37.6552V39.3471H67.5499V37.6552H65.8579Z" fill="white"></path>
        <path d="M73.4717 37.6552V39.3471H75.1636V37.6552H73.4717Z" fill="white"></path>
        <path d="M76.0098 37.6552V39.3471H77.7017V37.6552H76.0098Z" fill="white"></path>
        <path d="M78.5479 37.6552V39.3471H80.2398V37.6552H78.5479Z" fill="white"></path>
        <path d="M12.5615 40.1931V41.8851H14.2535V40.1931H12.5615Z" fill="white"></path>
        <path d="M15.0996 40.1931V41.8851H16.7916V40.1931H15.0996Z" fill="white"></path>
        <path d="M25.251 40.1931V41.8851H26.9429V40.1931H25.251Z" fill="white"></path>
        <path d="M27.7891 40.1931V41.8851H29.481V40.1931H27.7891Z" fill="white"></path>
        <path d="M30.3271 40.1931V41.8851H32.0191V40.1931H30.3271Z" fill="white"></path>
        <path d="M35.4028 40.1931V41.8851H37.0948V40.1931H35.4028Z" fill="white"></path>
        <path d="M37.9409 40.1931V41.8851H39.6329V40.1931H37.9409Z" fill="white"></path>
        <path d="M43.0166 40.1931V41.8851H44.7086V40.1931H43.0166Z" fill="white"></path>
        <path d="M53.1685 40.1931V41.8851H54.8604V40.1931H53.1685Z" fill="white"></path>
        <path d="M55.7065 40.1931V41.8851H57.3985V40.1931H55.7065Z" fill="white"></path>
        <path d="M58.2441 40.1931V41.8851H59.9361V40.1931H58.2441Z" fill="white"></path>
        <path d="M60.7822 40.1931V41.8851H62.4742V40.1931H60.7822Z" fill="white"></path>
        <path d="M63.3203 40.1931V41.8851H65.0123V40.1931H63.3203Z" fill="white"></path>
        <path d="M68.396 40.1931V41.8851H70.0879V40.1931H68.396Z" fill="white"></path>
        <path d="M70.9341 40.1931V41.8851H72.626V40.1931H70.9341Z" fill="white"></path>
        <path d="M76.0098 40.1931V41.8851H77.7017V40.1931H76.0098Z" fill="white"></path>
        <path d="M78.5479 40.1931V41.8851H80.2398V40.1931H78.5479Z" fill="white"></path>
        <path d="M7.48584 42.731V44.423H9.17779V42.731H7.48584Z" fill="white"></path>
        <path d="M15.0996 42.731V44.423H16.7916V42.731H15.0996Z" fill="white"></path>
        <path d="M17.6372 42.731V44.423H19.3292V42.731H17.6372Z" fill="white"></path>
        <path d="M20.1753 42.731V44.423H21.8672V42.731H20.1753Z" fill="white"></path>
        <path d="M22.7134 42.731V44.423H24.4053V42.731H22.7134Z" fill="white"></path>
        <path d="M25.251 42.731V44.423H26.9429V42.731H25.251Z" fill="white"></path>
        <path d="M35.4028 42.731V44.423H37.0948V42.731H35.4028Z" fill="white"></path>
        <path d="M40.4785 42.731V44.423H42.1705V42.731H40.4785Z" fill="white"></path>
        <path d="M43.0166 42.731V44.423H44.7086V42.731H43.0166Z" fill="white"></path>
        <path d="M50.6304 42.731V44.423H52.3223V42.731H50.6304Z" fill="white"></path>
        <path d="M58.2441 42.731V44.423H59.9361V42.731H58.2441Z" fill="white"></path>
        <path d="M60.7822 42.731V44.423H62.4742V42.731H60.7822Z" fill="white"></path>
        <path d="M65.8579 42.731V44.423H67.5499V42.731H65.8579Z" fill="white"></path>
        <path d="M7.48584 45.269V46.9609H9.17779V45.269H7.48584Z" fill="white"></path>
        <path d="M10.0234 45.269V46.9609H11.7154V45.269H10.0234Z" fill="white"></path>
        <path d="M15.0996 45.269V46.9609H16.7916V45.269H15.0996Z" fill="white"></path>
        <path d="M20.1753 45.269V46.9609H21.8672V45.269H20.1753Z" fill="white"></path>
        <path d="M25.251 45.269V46.9609H26.9429V45.269H25.251Z" fill="white"></path>
        <path d="M32.8647 45.269V46.9609H34.5567V45.269H32.8647Z" fill="white"></path>
        <path d="M35.4028 45.269V46.9609H37.0948V45.269H35.4028Z" fill="white"></path>
        <path d="M40.4785 45.269V46.9609H42.1705V45.269H40.4785Z" fill="white"></path>
        <path d="M43.0166 45.269V46.9609H44.7086V45.269H43.0166Z" fill="white"></path>
        <path d="M50.6304 45.269V46.9609H52.3223V45.269H50.6304Z" fill="white"></path>
        <path d="M60.7822 45.269V46.9609H62.4742V45.269H60.7822Z" fill="white"></path>
        <path d="M63.3203 45.269V46.9609H65.0123V45.269H63.3203Z" fill="white"></path>
        <path d="M68.396 45.269V46.9609H70.0879V45.269H68.396Z" fill="white"></path>
        <path d="M70.9341 45.269V46.9609H72.626V45.269H70.9341Z" fill="white"></path>
        <path d="M76.0098 45.269V46.9609H77.7017V45.269H76.0098Z" fill="white"></path>
        <path d="M78.5479 45.269V46.9609H80.2398V45.269H78.5479Z" fill="white"></path>
        <path d="M10.0234 47.8069V49.4988H11.7154V47.8069H10.0234Z" fill="white"></path>
        <path d="M17.6372 47.8069V49.4988H19.3292V47.8069H17.6372Z" fill="white"></path>
        <path d="M22.7134 47.8069V49.4988H24.4053V47.8069H22.7134Z" fill="white"></path>
        <path d="M35.4028 47.8069V49.4988H37.0948V47.8069H35.4028Z" fill="white"></path>
        <path d="M37.9409 47.8069V49.4988H39.6329V47.8069H37.9409Z" fill="white"></path>
        <path d="M40.4785 47.8069V49.4988H42.1705V47.8069H40.4785Z" fill="white"></path>
        <path d="M50.6304 47.8069V49.4988H52.3223V47.8069H50.6304Z" fill="white"></path>
        <path d="M53.1685 47.8069V49.4988H54.8604V47.8069H53.1685Z" fill="white"></path>
        <path d="M58.2441 47.8069V49.4988H59.9361V47.8069H58.2441Z" fill="white"></path>
        <path d="M60.7822 47.8069V49.4988H62.4742V47.8069H60.7822Z" fill="white"></path>
        <path d="M65.8579 47.8069V49.4988H67.5499V47.8069H65.8579Z" fill="white"></path>
        <path d="M70.9341 47.8069V49.4988H72.626V47.8069H70.9341Z" fill="white"></path>
        <path d="M73.4717 47.8069V49.4988H75.1636V47.8069H73.4717Z" fill="white"></path>
        <path d="M76.0098 47.8069V49.4988H77.7017V47.8069H76.0098Z" fill="white"></path>
        <path d="M7.48584 50.3448V52.0368H9.17779V50.3448H7.48584Z" fill="white"></path>
        <path d="M15.0996 50.3448V52.0368H16.7916V50.3448H15.0996Z" fill="white"></path>
        <path d="M20.1753 50.3448V52.0368H21.8672V50.3448H20.1753Z" fill="white"></path>
        <path d="M30.3271 50.3448V52.0368H32.0191V50.3448H30.3271Z" fill="white"></path>
        <path d="M32.8647 50.3448V52.0368H34.5567V50.3448H32.8647Z" fill="white"></path>
        <path d="M40.4785 50.3448V52.0368H42.1705V50.3448H40.4785Z" fill="white"></path>
        <path d="M43.0166 50.3448V52.0368H44.7086V50.3448H43.0166Z" fill="white"></path>
        <path d="M45.5547 50.3448V52.0368H47.2466V50.3448H45.5547Z" fill="white"></path>
        <path d="M60.7822 50.3448V52.0368H62.4742V50.3448H60.7822Z" fill="white"></path>
        <path d="M68.396 50.3448V52.0368H70.0879V50.3448H68.396Z" fill="white"></path>
        <path d="M70.9341 50.3448V52.0368H72.626V50.3448H70.9341Z" fill="white"></path>
        <path d="M73.4717 50.3448V52.0368H75.1636V50.3448H73.4717Z" fill="white"></path>
        <path d="M76.0098 50.3448V52.0368H77.7017V50.3448H76.0098Z" fill="white"></path>
        <path d="M78.5479 50.3448V52.0368H80.2398V50.3448H78.5479Z" fill="white"></path>
        <path d="M7.48584 52.8828V54.5747H9.17779V52.8828H7.48584Z" fill="white"></path>
        <path d="M17.6372 52.8828V54.5747H19.3292V52.8828H17.6372Z" fill="white"></path>
        <path d="M20.1753 52.8828V54.5747H21.8672V52.8828H20.1753Z" fill="white"></path>
        <path d="M22.7134 52.8828V54.5747H24.4053V52.8828H22.7134Z" fill="white"></path>
        <path d="M25.251 52.8828V54.5747H26.9429V52.8828H25.251Z" fill="white"></path>
        <path d="M32.8647 52.8828V54.5747H34.5567V52.8828H32.8647Z" fill="white"></path>
        <path d="M37.9409 52.8828V54.5747H39.6329V52.8828H37.9409Z" fill="white"></path>
        <path d="M40.4785 52.8828V54.5747H42.1705V52.8828H40.4785Z" fill="white"></path>
        <path d="M43.0166 52.8828V54.5747H44.7086V52.8828H43.0166Z" fill="white"></path>
        <path d="M45.5547 52.8828V54.5747H47.2466V52.8828H45.5547Z" fill="white"></path>
        <path d="M58.2441 52.8828V54.5747H59.9361V52.8828H58.2441Z" fill="white"></path>
        <path d="M63.3203 52.8828V54.5747H65.0123V52.8828H63.3203Z" fill="white"></path>
        <path d="M65.8579 52.8828V54.5747H67.5499V52.8828H65.8579Z" fill="white"></path>
        <path d="M70.9341 52.8828V54.5747H72.626V52.8828H70.9341Z" fill="white"></path>
        <path d="M73.4717 52.8828V54.5747H75.1636V52.8828H73.4717Z" fill="white"></path>
        <path d="M7.48584 55.4207V57.1127H9.17779V55.4207H7.48584Z" fill="white"></path>
        <path d="M15.0996 55.4207V57.1127H16.7916V55.4207H15.0996Z" fill="white"></path>
        <path d="M30.3271 55.4207V57.1127H32.0191V55.4207H30.3271Z" fill="white"></path>
        <path d="M40.4785 55.4207V57.1127H42.1705V55.4207H40.4785Z" fill="white"></path>
        <path d="M43.0166 55.4207V57.1127H44.7086V55.4207H43.0166Z" fill="white"></path>
        <path d="M45.5547 55.4207V57.1127H47.2466V55.4207H45.5547Z" fill="white"></path>
        <path d="M50.6304 55.4207V57.1127H52.3223V55.4207H50.6304Z" fill="white"></path>
        <path d="M63.3203 55.4207V57.1127H65.0123V55.4207H63.3203Z" fill="white"></path>
        <path d="M68.396 55.4207V57.1127H70.0879V55.4207H68.396Z" fill="white"></path>
        <path d="M70.9341 55.4207V57.1127H72.626V55.4207H70.9341Z" fill="white"></path>
        <path d="M78.5479 55.4207V57.1127H80.2398V55.4207H78.5479Z" fill="white"></path>
        <path d="M7.48584 57.9586V59.6506H9.17779V57.9586H7.48584Z" fill="white"></path>
        <path d="M17.6372 57.9586V59.6506H19.3292V57.9586H17.6372Z" fill="white"></path>
        <path d="M22.7134 57.9586V59.6506H24.4053V57.9586H22.7134Z" fill="white"></path>
        <path d="M30.3271 57.9586V59.6506H32.0191V57.9586H30.3271Z" fill="white"></path>
        <path d="M32.8647 57.9586V59.6506H34.5567V57.9586H32.8647Z" fill="white"></path>
        <path d="M37.9409 57.9586V59.6506H39.6329V57.9586H37.9409Z" fill="white"></path>
        <path d="M43.0166 57.9586V59.6506H44.7086V57.9586H43.0166Z" fill="white"></path>
        <path d="M45.5547 57.9586V59.6506H47.2466V57.9586H45.5547Z" fill="white"></path>
        <path d="M48.0928 57.9586V59.6506H49.7847V57.9586H48.0928Z" fill="white"></path>
        <path d="M50.6304 57.9586V59.6506H52.3223V57.9586H50.6304Z" fill="white"></path>
        <path d="M58.2441 57.9586V59.6506H59.9361V57.9586H58.2441Z" fill="white"></path>
        <path d="M60.7822 57.9586V59.6506H62.4742V57.9586H60.7822Z" fill="white"></path>
        <path d="M63.3203 57.9586V59.6506H65.0123V57.9586H63.3203Z" fill="white"></path>
        <path d="M65.8579 57.9586V59.6506H67.5499V57.9586H65.8579Z" fill="white"></path>
        <path d="M68.396 57.9586V59.6506H70.0879V57.9586H68.396Z" fill="white"></path>
        <path d="M70.9341 57.9586V59.6506H72.626V57.9586H70.9341Z" fill="white"></path>
        <path d="M76.0098 57.9586V59.6506H77.7017V57.9586H76.0098Z" fill="white"></path>
        <path d="M27.7891 60.4966V62.1885H29.481V60.4966H27.7891Z" fill="white"></path>
        <path d="M30.3271 60.4966V62.1885H32.0191V60.4966H30.3271Z" fill="white"></path>
        <path d="M32.8647 60.4966V62.1885H34.5567V60.4966H32.8647Z" fill="white"></path>
        <path d="M35.4028 60.4966V62.1885H37.0948V60.4966H35.4028Z" fill="white"></path>
        <path d="M37.9409 60.4966V62.1885H39.6329V60.4966H37.9409Z" fill="white"></path>
        <path d="M43.0166 60.4966V62.1885H44.7086V60.4966H43.0166Z" fill="white"></path>
        <path d="M45.5547 60.4966V62.1885H47.2466V60.4966H45.5547Z" fill="white"></path>
        <path d="M50.6304 60.4966V62.1885H52.3223V60.4966H50.6304Z" fill="white"></path>
        <path d="M53.1685 60.4966V62.1885H54.8604V60.4966H53.1685Z" fill="white"></path>
        <path d="M55.7065 60.4966V62.1885H57.3985V60.4966H55.7065Z" fill="white"></path>
        <path d="M58.2441 60.4966V62.1885H59.9361V60.4966H58.2441Z" fill="white"></path>
        <path d="M68.396 60.4966V62.1885H70.0879V60.4966H68.396Z" fill="white"></path>
        <path d="M70.9341 60.4966V62.1885H72.626V60.4966H70.9341Z" fill="white"></path>
        <path d="M76.0098 60.4966V62.1885H77.7017V60.4966H76.0098Z" fill="white"></path>
        <path d="M78.5479 60.4966V62.1885H80.2398V60.4966H78.5479Z" fill="white"></path>
        <path d="M30.3271 63.0345V64.7264H32.0191V63.0345H30.3271Z" fill="white"></path>
        <path d="M32.8647 63.0345V64.7264H34.5567V63.0345H32.8647Z" fill="white"></path>
        <path d="M40.4785 63.0345V64.7264H42.1705V63.0345H40.4785Z" fill="white"></path>
        <path d="M43.0166 63.0345V64.7264H44.7086V63.0345H43.0166Z" fill="white"></path>
        <path d="M50.6304 63.0345V64.7264H52.3223V63.0345H50.6304Z" fill="white"></path>
        <path d="M53.1685 63.0345V64.7264H54.8604V63.0345H53.1685Z" fill="white"></path>
        <path d="M55.7065 63.0345V64.7264H57.3985V63.0345H55.7065Z" fill="white"></path>
        <path d="M58.2441 63.0345V64.7264H59.9361V63.0345H58.2441Z" fill="white"></path>
        <path d="M63.3203 63.0345V64.7264H65.0123V63.0345H63.3203Z" fill="white"></path>
        <path d="M68.396 63.0345V64.7264H70.0879V63.0345H68.396Z" fill="white"></path>
        <path d="M30.3271 65.5724V67.2643H32.0191V65.5724H30.3271Z" fill="white"></path>
        <path d="M37.9409 65.5724V67.2643H39.6329V65.5724H37.9409Z" fill="white"></path>
        <path d="M40.4785 65.5724V67.2643H42.1705V65.5724H40.4785Z" fill="white"></path>
        <path d="M43.0166 65.5724V67.2643H44.7086V65.5724H43.0166Z" fill="white"></path>
        <path d="M48.0928 65.5724V67.2643H49.7847V65.5724H48.0928Z" fill="white"></path>
        <path d="M55.7065 65.5724V67.2643H57.3985V65.5724H55.7065Z" fill="white"></path>
        <path d="M58.2441 65.5724V67.2643H59.9361V65.5724H58.2441Z" fill="white"></path>
        <path d="M68.396 65.5724V67.2643H70.0879V65.5724H68.396Z" fill="white"></path>
        <path d="M70.9341 65.5724V67.2643H72.626V65.5724H70.9341Z" fill="white"></path>
        <path d="M76.0098 65.5724V67.2643H77.7017V65.5724H76.0098Z" fill="white"></path>
        <path d="M78.5479 65.5724V67.2643H80.2398V65.5724H78.5479Z" fill="white"></path>
        <path d="M27.7891 68.1104V69.8023H29.481V68.1104H27.7891Z" fill="white"></path>
        <path d="M30.3271 68.1104V69.8023H32.0191V68.1104H30.3271Z" fill="white"></path>
        <path d="M35.4028 68.1104V69.8023H37.0948V68.1104H35.4028Z" fill="white"></path>
        <path d="M40.4785 68.1104V69.8023H42.1705V68.1104H40.4785Z" fill="white"></path>
        <path d="M48.0928 68.1104V69.8023H49.7847V68.1104H48.0928Z" fill="white"></path>
        <path d="M50.6304 68.1104V69.8023H52.3223V68.1104H50.6304Z" fill="white"></path>
        <path d="M58.2441 68.1104V69.8023H59.9361V68.1104H58.2441Z" fill="white"></path>
        <path d="M60.7822 68.1104V69.8023H62.4742V68.1104H60.7822Z" fill="white"></path>
        <path d="M63.3203 68.1104V69.8023H65.0123V68.1104H63.3203Z" fill="white"></path>
        <path d="M65.8579 68.1104V69.8023H67.5499V68.1104H65.8579Z" fill="white"></path>
        <path d="M68.396 68.1104V69.8023H70.0879V68.1104H68.396Z" fill="white"></path>
        <path d="M70.9341 68.1104V69.8023H72.626V68.1104H70.9341Z" fill="white"></path>
        <path d="M73.4717 68.1104V69.8023H75.1636V68.1104H73.4717Z" fill="white"></path>
        <path d="M78.5479 68.1104V69.8023H80.2398V68.1104H78.5479Z" fill="white"></path>
        <path d="M27.7891 70.6483V72.3402H29.481V70.6483H27.7891Z" fill="white"></path>
        <path d="M32.8647 70.6483V72.3402H34.5567V70.6483H32.8647Z" fill="white"></path>
        <path d="M40.4785 70.6483V72.3402H42.1705V70.6483H40.4785Z" fill="white"></path>
        <path d="M43.0166 70.6483V72.3402H44.7086V70.6483H43.0166Z" fill="white"></path>
        <path d="M45.5547 70.6483V72.3402H47.2466V70.6483H45.5547Z" fill="white"></path>
        <path d="M48.0928 70.6483V72.3402H49.7847V70.6483H48.0928Z" fill="white"></path>
        <path d="M55.7065 70.6483V72.3402H57.3985V70.6483H55.7065Z" fill="white"></path>
        <path d="M58.2441 70.6483V72.3402H59.9361V70.6483H58.2441Z" fill="white"></path>
        <path d="M60.7822 70.6483V72.3402H62.4742V70.6483H60.7822Z" fill="white"></path>
        <path d="M65.8579 70.6483V72.3402H67.5499V70.6483H65.8579Z" fill="white"></path>
        <path d="M70.9341 70.6483V72.3402H72.626V70.6483H70.9341Z" fill="white"></path>
        <path d="M27.7891 73.1862V74.8782H29.481V73.1862H27.7891Z" fill="white"></path>
        <path d="M32.8647 73.1862V74.8782H34.5567V73.1862H32.8647Z" fill="white"></path>
        <path d="M50.6304 73.1862V74.8782H52.3223V73.1862H50.6304Z" fill="white"></path>
        <path d="M53.1685 73.1862V74.8782H54.8604V73.1862H53.1685Z" fill="white"></path>
        <path d="M55.7065 73.1862V74.8782H57.3985V73.1862H55.7065Z" fill="white"></path>
        <path d="M58.2441 73.1862V74.8782H59.9361V73.1862H58.2441Z" fill="white"></path>
        <path d="M60.7822 73.1862V74.8782H62.4742V73.1862H60.7822Z" fill="white"></path>
        <path d="M63.3203 73.1862V74.8782H65.0123V73.1862H63.3203Z" fill="white"></path>
        <path d="M65.8579 73.1862V74.8782H67.5499V73.1862H65.8579Z" fill="white"></path>
        <path d="M68.396 73.1862V74.8782H70.0879V73.1862H68.396Z" fill="white"></path>
        <path d="M70.9341 73.1862V74.8782H72.626V73.1862H70.9341Z" fill="white"></path>
        <path d="M76.0098 73.1862V74.8782H77.7017V73.1862H76.0098Z" fill="white"></path>
        <path d="M35.4028 75.7241V77.4161H37.0948V75.7241H35.4028Z" fill="white"></path>
        <path d="M37.9409 75.7241V77.4161H39.6329V75.7241H37.9409Z" fill="white"></path>
        <path d="M40.4785 75.7241V77.4161H42.1705V75.7241H40.4785Z" fill="white"></path>
        <path d="M45.5547 75.7241V77.4161H47.2466V75.7241H45.5547Z" fill="white"></path>
        <path d="M48.0928 75.7241V77.4161H49.7847V75.7241H48.0928Z" fill="white"></path>
        <path d="M50.6304 75.7241V77.4161H52.3223V75.7241H50.6304Z" fill="white"></path>
        <path d="M63.3203 75.7241V77.4161H65.0123V75.7241H63.3203Z" fill="white"></path>
        <path d="M68.396 75.7241V77.4161H70.0879V75.7241H68.396Z" fill="white"></path>
        <path d="M76.0098 75.7241V77.4161H77.7017V75.7241H76.0098Z" fill="white"></path>
        <path d="M32.8647 78.2621V79.954H34.5567V78.2621H32.8647Z" fill="white"></path>
        <path d="M35.4028 78.2621V79.954H37.0948V78.2621H35.4028Z" fill="white"></path>
        <path d="M40.4785 78.2621V79.954H42.1705V78.2621H40.4785Z" fill="white"></path>
        <path d="M45.5547 78.2621V79.954H47.2466V78.2621H45.5547Z" fill="white"></path>
        <path d="M50.6304 78.2621V79.954H52.3223V78.2621H50.6304Z" fill="white"></path>
        <path d="M55.7065 78.2621V79.954H57.3985V78.2621H55.7065Z" fill="white"></path>
        <path d="M58.2441 78.2621V79.954H59.9361V78.2621H58.2441Z" fill="white"></path>
        <path d="M60.7822 78.2621V79.954H62.4742V78.2621H60.7822Z" fill="white"></path>
        <path d="M63.3203 78.2621V79.954H65.0123V78.2621H63.3203Z" fill="white"></path>
        <path d="M68.396 78.2621V79.954H70.0879V78.2621H68.396Z" fill="white"></path>
        <path d="M70.9341 78.2621V79.954H72.626V78.2621H70.9341Z" fill="white"></path>
        <path d="M73.4717 78.2621V79.954H75.1636V78.2621H73.4717Z" fill="white"></path>
        <path d="M7.48584 7.20001V24.9655H25.2514V7.20001H7.48584ZM22.7134 22.4276H10.0238V9.73794H22.7134V24.9655V22.4276Z" fill="white"></path>
        <path d="M7.48584 63.0345V80.8H25.2514V63.0345H7.48584ZM22.7134 78.2621H10.0238V65.5724H22.7134V80.8V78.2621Z" fill="white"></path>
        <path d="M63.3203 7.20001V24.9655H81.0858V7.20001H63.3203ZM78.5479 22.4276H65.8582V9.73794H78.5479V24.9655V22.4276Z" fill="white"></path>
        <path d="M12.5615 12.2759V19.8897H20.1753V12.2759H12.5615Z" fill="white"></path>
        <path d="M68.396 12.2759V19.8897H76.0098V12.2759H68.396Z" fill="white"></path>
        <path d="M12.5615 68.1104V75.7241H20.1753V68.1104H12.5615Z" fill="white"></path>
        <rect x="33.9814" y="33.696" width="20.608" height="20.608" fill="url(#pattern0)"></rect>
    </g>
    <rect x="0.785645" y="0.5" width="87" height="87" rx="7.5" stroke="white" stroke-opacity="0.16"></rect>
    
</svg>